# Blender v2.68 (sub 0) OBJ File: ''
# www.blender.org
o Sphere
v -0.707107 0.707107 0.000000
v -1.000000 -0.000000 0.000000
v -0.707107 -0.707107 0.000000
v 0.000000 -1.000000 0.000000
v 0.353554 0.707107 -0.612372
v 0.500000 -0.000000 -0.866026
v 0.353554 -0.707107 -0.612372
v 0.000000 1.000000 0.000000
v 0.353553 0.707107 0.612373
v 0.500000 -0.000000 0.866026
v 0.353553 -0.707107 0.612373
vt 0.000000 0.000000
vt 1.000000 0.000000
vt 0.000000 1.000000
vt 1.000000 1.000000
vn -0.489610 0.202803 -0.848029
vn -0.489610 -0.202803 -0.848029
vn 0.979220 0.202803 0.000000
vn 0.979220 -0.202803 0.000000
vn -0.318976 -0.770076 -0.552483
vn -0.318976 0.770076 -0.552482
vn 0.637952 -0.770076 0.000000
vn 0.637952 0.770076 0.000000
vn -0.318976 -0.770076 0.552482
vn -0.318976 0.770076 0.552482
vn -0.489610 0.202803 0.848029
vn -0.489610 -0.202803 0.848029
s off
f 2/1/1 1/2/1 6/3/1
f 3/1/2 2/2/2 7/3/2
f 6/1/3 5/2/3 10/3/3
f 7/1/4 6/2/4 11/3/4
f 4/1/5 3/2/5 7/4/5
f 1/1/6 8/2/6 5/4/6
f 4/1/7 7/2/7 11/4/7
f 5/1/8 8/2/8 9/4/8
f 4/1/9 11/2/9 3/4/9
f 9/1/10 8/2/10 1/4/10
f 10/1/11 9/2/11 2/3/11
f 11/1/12 10/2/12 3/3/12
f 1/2/1 5/4/1 6/3/1
f 2/2/2 6/4/2 7/3/2
f 5/2/3 9/4/3 10/3/3
f 6/2/4 10/4/4 11/3/4
f 9/2/11 1/4/11 2/3/11
f 10/2/12 2/4/12 3/3/12
